<?xml version="1.0" encoding="utf-8"?>
<!-- Generator: Adobe Illustrator 25.0.0, SVG Export Plug-In . SVG Version: 6.00 Build 0)  -->
<svg version="1.1" id="Layer_1" xmlns="http://www.w3.org/2000/svg" xmlns:xlink="http://www.w3.org/1999/xlink" x="0px" y="0px"
	 viewBox="0 0 1440 320" style="enable-background:new 0 0 1440 320;" xml:space="preserve">
<style type="text/css">
	.st0{fill:#11224D;}
</style>
<path class="st0" d="M0,128l21.8,26.7C43.6,181,87,235,131,213.3C174.5,192,218,96,262,85.3C305.5,75,349,149,393,176 c43.4,27,87,5,131,10.7c43.3,5.3,87,37.3,131,53.3c43.2,16,87,16,130-16c44.1-32,88-96,131-90.7c44,5.7,88,79.7,131,117.4 c43.9,37.3,88,37.3,131,10.6c43.8-26.3,87-80.3,131-101.3c43.7-21,87-11,109-5.3l22,5.3v160h-21.8c-21.8,0-65.2,0-109.2,0 c-43.5,0-87,0-131,0c-43.5,0-87,0-131,0c-43.4,0-87,0-131,0c-43.3,0-87,0-131,0c-43.2,0-87,0-130,0c-44.1,0-88,0-131,0 c-44,0-88,0-131,0c-43.9,0-88,0-131,0c-43.8,0-87,0-131,0c-43.7,0-87,0-109,0H0V128z"/>
</svg>
