<svg xmlns="http://www.w3.org/2000/svg" viewBox="0 0 48.55 57.13"><defs><style>.cls-1{fill:none;stroke-miterlimit:10;}.cls-1,.cls-2{stroke:#1f2e4f;}.cls-2{fill:#1f2e4f;stroke-linecap:round;stroke-linejoin:round;}</style></defs><g id="Layer_2" data-name="Layer 2"><g id="Layer_1-2" data-name="Layer 1"><path class="cls-1" d="M44.14,30.71c1.07-7.27,1.12-14.26.68-17"/><path class="cls-1" d="M6.29,43.41c1.42,4.25,3.56,7.86,6.77,9.52h0a19.52,19.52,0,0,0,11.66,3.7,22.63,22.63,0,0,0,12.09-4.48c2.41-1.79,4.17-4.86,5.43-8.52"/><path class="cls-1" d="M3.81,20.49A78.49,78.49,0,0,0,4.07,31"/><path class="cls-1" d="M6.53,43.67A6.44,6.44,0,0,1,.61,37a6.7,6.7,0,0,1,3.53-6"/><path class="cls-1" d="M44.15,30.71a6.79,6.79,0,0,1,3.41,8.79,6.68,6.68,0,0,1-5.43,4.41"/><path class="cls-1" d="M8.59,18.45a9,9,0,0,0-2.1,2.66c-1,1.94-.82,3.42-1.6,7-.29,1.32-.58,2.37-.78,3"/><path class="cls-1" d="M39.94,18.7a9.31,9.31,0,0,1,1.59,2.07c1.06,1.92.9,3.4,1.76,7,.32,1.3.64,2.35.85,3"/><path class="cls-1" d="M3.21,13.86C.81,15.56,0,18.1.78,19.39c.87,1.45,3.64,1.24,5.22.71a6.66,6.66,0,0,0,2.75-1.8"/><path class="cls-1" d="M9,4.16C14.53.44,21.74.49,23.57.5c8.1.06,19.35,3.61,21,10.68A8.41,8.41,0,0,1,44.72,14"/><path class="cls-1" d="M3,14.12A2.78,2.78,0,0,1,1.3,12.41C.73,10.28,3.79,7,9,4.13"/><path class="cls-1" d="M8.64,18.45A2.92,2.92,0,0,0,9,20.61c1.13,1.6,4.38,1.13,6.22.4a7.91,7.91,0,0,0,3.11-2.28"/><path class="cls-1" d="M18.36,18.6v-.06"/><path class="cls-1" d="M35.61,16.09C27.72,21,21.2,22.78,19.1,20.49a3.08,3.08,0,0,1-.74-1.89"/><path class="cls-1" d="M35.74,15.89c-.19,1.7.36,2.95,1.34,3.3,1.72.62,4.66-1.58,6.13-3.19a9.76,9.76,0,0,0,1.65-2.46"/><line class="cls-1" x1="4.07" y1="30.84" x2="44.14" y2="30.58"/><path class="cls-2" d="M26.62,30.82c-.43,5.38,3.55,9.63,7.56,9.36,3.75-.26,7.1-4.46,6.61-9.45"/><path class="cls-2" d="M7,30.82c-.43,5.38,3.56,9.63,7.57,9.36,3.74-.26,7.09-4.46,6.6-9.45"/><path class="cls-1" d="M18.84,46.71a5.7,5.7,0,0,0,7.35,2.78,5.46,5.46,0,0,0,3.46-5.58"/></g></g></svg>