<svg xmlns="http://www.w3.org/2000/svg" viewBox="0 0 56 47"><defs><style>.cls-1{fill:#1f2e4f;}.cls-2,.cls-3{fill:none;stroke:#1f2e4f;stroke-width:3px;}.cls-2,.cls-3,.cls-4{stroke-linecap:round;}.cls-2,.cls-4{stroke-linejoin:round;}.cls-3{stroke-miterlimit:10;}.cls-4{fill:#fff;stroke:#fff;}</style></defs><g id="Layer_2" data-name="Layer 2"><g id="Layer_1-2" data-name="Layer 1"><path class="cls-1" d="M55,10V46H1V10H55m0-1H1a1,1,0,0,0-1,1V46a1,1,0,0,0,1,1H55a1,1,0,0,0,1-1V10a1,1,0,0,0-1-1Z"/><path class="cls-2" d="M18.78,21.57,10,28l8.78,6.43"/><path class="cls-2" d="M36.33,21.57,46,28l-9.67,6.43"/><line class="cls-3" x1="23.17" y1="37" x2="31.94" y2="19"/><rect class="cls-1" x="0.5" y="0.5" width="55" height="10" rx="0.5"/><path class="cls-1" d="M55,1v9H1V1H55m0-1H1A1,1,0,0,0,0,1v9a1,1,0,0,0,1,1H55a1,1,0,0,0,1-1V1a1,1,0,0,0-1-1Z"/><circle class="cls-4" cx="51.74" cy="5.5" r="0.93"/><circle class="cls-4" cx="40.24" cy="5.5" r="0.93"/><circle class="cls-4" cx="46" cy="5.5" r="0.93"/></g></g></svg>