<svg xmlns="http://www.w3.org/2000/svg" viewBox="0 0 47.29 49.16"><defs><style>.cls-1,.cls-3{fill:none;}.cls-1,.cls-2,.cls-3{stroke:#1f2e4f;stroke-linecap:round;stroke-linejoin:round;}.cls-2{fill:#fff;}.cls-3{stroke-width:0.75px;}</style></defs><g id="Layer_2" data-name="Layer 2"><g id="Layer_1-2" data-name="Layer 1"><path class="cls-1" d="M19.79,48.66l-18-18A8.41,8.41,0,0,1,.5,26.18a8.55,8.55,0,0,1,1.29-4.52l18,18"/><path class="cls-1" d="M19.79,39.66h27a8.11,8.11,0,0,0-1.39,4.62,8,8,0,0,0,1.39,4.38h-27a6.34,6.34,0,0,1-2-5A6.21,6.21,0,0,1,19.79,39.66Z"/><path class="cls-1" d="M19.79,39.66l-18-18A8.41,8.41,0,0,1,.5,17.18a8.55,8.55,0,0,1,1.29-4.52l18,18"/><path class="cls-1" d="M19.79,30.66h27a8.11,8.11,0,0,0-1.39,4.62,8,8,0,0,0,1.39,4.38h-27a6.34,6.34,0,0,1-2-5A6.21,6.21,0,0,1,19.79,30.66Z"/><polygon class="cls-1" points="1.79 12.66 28.79 12.63 46.79 30.66 19.79 30.66 1.79 12.66"/><polygon class="cls-2" points="8.58 9.5 26.58 0.5 44.58 9.5 26.58 18.5 8.58 9.5"/><polyline class="cls-2" points="26.58 27.5 39.09 21.84 39.09 12.24 26.58 18.5 14.06 12.24 14.06 21.84 26.58 27.5"/><path class="cls-2" d="M44.58,9.5V14"/><circle class="cls-2" cx="44.58" cy="14.91" r="1.42"/><path class="cls-3" d="M11.47,31.35a5.79,5.79,0,0,1-.44-2.6,6.21,6.21,0,0,1,2.13-4.12"/><path class="cls-3" d="M9.52,29.52a5.92,5.92,0,0,1-.44-2.59,6.18,6.18,0,0,1,2.13-4.12"/><path class="cls-3" d="M12.54,41.08a5.92,5.92,0,0,1-.44-2.59,6.17,6.17,0,0,1,2.14-4.12"/><path class="cls-3" d="M10.59,39.17a5.81,5.81,0,0,1-.43-2.6,6.21,6.21,0,0,1,2.13-4.12"/></g></g></svg>